<svg t="1744032146707" class="icon" viewBox="0 0 1024 1024" version="1.1" xmlns="http://www.w3.org/2000/svg" p-id="16265" width="512" height="512"><path d="M742.741333 335.957333c-43.818667 0-153.088 108.714667-232.874666 185.813334-120.96 116.906667-235.221333 230.4-326.656 230.4H126.976a41.642667 41.642667 0 0 1 0-83.2h56.234667c57.770667 0 174.805333-116.224 268.8-207.061334 114.432-110.549333 213.248-209.237333 290.730666-209.237333h53.674667l-56.96-55.210667a39.68 39.68 0 0 1-0.042667-57.258666 41.642667 41.642667 0 0 1 58.88-0.042667l128.170667 127.872a41.514667 41.514667 0 0 1 0 58.794667l-128.213333 127.786666a41.301333 41.301333 0 0 1-58.88-0.64 42.538667 42.538667 0 0 1 0.085333-59.605333l56.96-58.453333h-53.674667z m55.509334 214.101334a41.642667 41.642667 0 0 0-58.88 0.085333 43.52 43.52 0 0 0 0.085333 60.416l56.96 58.410667h-53.674667c-34.218667 0-91.306667-50.602667-147.925333-103.509334-16.810667-15.701333-43.136-15.616-58.88 1.152a43.050667 43.050667 0 0 0 2.005333 59.989334c86.272 80.682667 144.469333 125.610667 204.8 125.610666h53.674667l-56.96 55.210667a40.618667 40.618667 0 0 0-0.042667 58.026667c8.106667 8.149333 18.773333 11.818667 29.44 11.818666 10.666667 0 21.290667-4.266667 29.44-12.373333l128.170667-127.957333a41.728 41.728 0 0 0 0-58.965334l-128.213333-127.914666zM126.976 335.957333h56.234667c43.861333 0 109.226667 55.808 161.322666 103.082667 7.978667 7.253333 18.005333 11.605333 27.989334 11.605333 11.306667 0 22.613333-4.181333 30.805333-13.226666a43.306667 43.306667 0 0 0-2.816-60.16c-81.408-73.941333-149.546667-124.586667-217.301333-124.586667H126.976a41.642667 41.642667 0 0 0 0 83.285333z" p-id="16266" fill="#000000"></path></svg>